<?xml version="1.0" encoding="utf-8"?>
<!-- Generator: Adobe Illustrator 27.0.0, SVG Export Plug-In . SVG Version: 6.00 Build 0)  -->
<svg version="1.1" id="Layer_1" xmlns="http://www.w3.org/2000/svg" xmlns:xlink="http://www.w3.org/1999/xlink" x="0px" y="0px"
     viewBox="0 0 200 200" style="enable-background:new 0 0 200 200;" xml:space="preserve">
<style type="text/css">
	.st0{fill:#00B7FF;}
	.st1{fill:url(#SVGID_1_);}
	.st2{fill:url(#SVGID_00000179633701519454934850000004943869922198856883_);}
</style>
    <path class="st0" d="M172.3,195.1H28c-12.6,0-22.8-10.2-22.8-22.8V28C5.3,15.5,15.5,5.3,28,5.3h144.3c12.6,0,22.8,10.2,22.8,22.8
	v144.3C195.1,184.9,184.9,195.1,172.3,195.1z"/>
    <g>
	<linearGradient id="SVGID_1_" gradientUnits="userSpaceOnUse" x1="100.6558" y1="158.5693" x2="95.0444" y2="125.6352">
		<stop  offset="7.458905e-08" style="stop-color:#FFFFFF"/>
        <stop  offset="1" style="stop-color:#00B7FF"/>
	</linearGradient>
        <polygon class="st1" points="41.8,155.8 158.6,155.8 44,46.8 58.4,64.8 	"/>

        <linearGradient id="SVGID_00000171698231742013144020000015457272749149386636_" gradientUnits="userSpaceOnUse" x1="59.8295" y1="119.8998" x2="140.2016" y2="29.2163">
		<stop  offset="7.458905e-08" style="stop-color:#FFFFFF"/>
            <stop  offset="1" style="stop-color:#8ADEFF"/>
	</linearGradient>
        <path style="fill:url(#SVGID_00000171698231742013144020000015457272749149386636_);" d="M115.4,44.5H41.8V131l0,0v24.8l0,0
		c15.5-15.9,36.8-24.8,59-24.8h14.6c23.9,0,43.2-19.4,43.2-43.2v0C158.6,63.9,139.3,44.5,115.4,44.5z"/>
        <path class="st0" d="M133.8,75.9H73.1c-1.7,0-3-1.4-3-3v0c0-1.7,1.4-3,3-3h60.6c1.7,0,3,1.4,3,3v0
		C136.8,74.5,135.4,75.9,133.8,75.9z"/>
        <path class="st0" d="M133.8,88.2h-42c-1.7,0-3-1.4-3-3v0c0-1.7,1.4-3,3-3h42c1.7,0,3,1.4,3,3v0C136.8,86.8,135.4,88.2,133.8,88.2z"
        />
</g>
</svg>
